# xmcd
#
# Track frame offsets:
#	150
#	25247
#	51032
#	70287
#	84937
#	99645
#	115232
#	131272
#	158755
#	181252
#	198372
#	222695
#
# Disc length: 3234 seconds
#
# Revision: 0
# Processed by: cddbd v1.5.1PL2 Copyright (c) Steve Scherf et al.
# Submitted via: audiograbber 1.83.01
#
DISCID=a10ca00c
DTITLE=Blue Tango - Blue Tango
DYEAR=1997
DGENRE=Blues
TTITLE0=Silver Tongue Devil
TTITLE1=Madness
TTITLE2=Don't Tease Me
TTITLE3=Wyoming Blues
TTITLE4=Five Steps
TTITLE5=Pack Yer Bags
TTITLE6=Goin' Crazy
TTITLE7=Trust My Baby
TTITLE8=Come To My Senses
TTITLE9=Believe In Me
TTITLE10=Feels Like Midnight
TTITLE11=Easy Avenue
EXTD=
EXTT0=
EXTT1=
EXTT2=
EXTT3=
EXTT4=
EXTT5=
EXTT6=
EXTT7=
EXTT8=
EXTT9=
EXTT10=
EXTT11=
PLAYORDER=
